<svg xmlns="http://www.w3.org/2000/svg" viewBox="0 0 1154 431" width="1154" height="431" font-family="Segoe UI, Arial, sans-serif" font-size="16" role="img" aria-label="Где я работаю">
<defs><marker id="ai-places-arr" viewBox="0 0 10 10" refX="9" refY="5" markerWidth="8" markerHeight="8" orient="auto-start-reverse"><path d="M 0 0 L 10 5 L 0 10 z" fill="#5b6770"/></marker></defs>
<rect x="0" y="0" width="1154" height="431" fill="#ffffff"/>
<rect x="16" y="12" width="532" height="403" rx="12" fill="#f7f8fa" stroke="#c5cad0"/>
<text x="28" y="32" font-size="12.5" font-weight="700" fill="#5b6770" letter-spacing="0.5">CODEX · ПРОЕКТЫ</text>
<rect x="605.6" y="12" width="264" height="399" rx="12" fill="#f7f8fa" stroke="#c5cad0"/>
<text x="617.6" y="32" font-size="12.5" font-weight="700" fill="#5b6770" letter-spacing="0.5">CLAUDE CODE · ПАПКИ</text>
<rect x="873.6" y="12" width="263.9999999999999" height="356.2" rx="12" fill="#f7f8fa" stroke="#c5cad0"/>
<text x="885.6" y="32" font-size="12.5" font-weight="700" fill="#5b6770" letter-spacing="0.5">В ЛЮБОМ МЕСТЕ</text>
<path d="M 1005.6 145 L 1005.6 237.2" fill="none" stroke="#5b6770" stroke-width="2" marker-end="url(#ai-places-arr)"/>
<rect x="28" y="44" width="240" height="101" rx="10" fill="#ffffff" stroke="#8a939b" stroke-width="2"/>
<rect x="38" y="52" width="52.96" height="18" rx="9" fill="#1c7a45"/>
<text x="64.48" y="65" text-anchor="middle" font-size="11" font-weight="700" fill="#fff">Сейчас</text>
<text x="148" y="88" text-anchor="middle" font-weight="700" fill="#1f2a33">bimcore-blog</text>
<text x="148" y="109" text-anchor="middle" font-size="14" fill="#3a4550">сайт learn: статьи,</text>
<text x="148" y="127" text-anchor="middle" font-size="14" fill="#3a4550">редактор, код сайта</text>
<rect x="296" y="44" width="240" height="61" rx="10" fill="#ffffff" stroke="#8a939b" stroke-width="2"/>
<text x="416" y="68" text-anchor="middle" font-weight="700" fill="#1f2a33">Маркетинг</text>
<text x="416" y="89" text-anchor="middle" font-size="14" fill="#3a4550">тексты и планы продвижения</text>
<rect x="28" y="182" width="240" height="61" rx="10" fill="#ffffff" stroke="#8a939b" stroke-width="2"/>
<text x="148" y="206" text-anchor="middle" font-weight="700" fill="#1f2a33">My_Lessons</text>
<text x="148" y="227" text-anchor="middle" font-size="14" fill="#3a4550">видеоуроки</text>
<rect x="296" y="182" width="240" height="61" rx="10" fill="#ffffff" stroke="#8a939b" stroke-width="2"/>
<text x="416" y="206" text-anchor="middle" font-weight="700" fill="#1f2a33">ВНЖ Великобритании</text>
<text x="416" y="227" text-anchor="middle" font-size="14" fill="#3a4550">личные документы</text>
<rect x="28" y="320" width="460" height="83" rx="10" fill="#ffffff" stroke="#8a939b" stroke-width="2"/>
<rect x="38" y="328" width="52.96" height="18" rx="9" fill="#1c7a45"/>
<text x="64.48" y="341" text-anchor="middle" font-size="11" font-weight="700" fill="#fff">Сейчас</text>
<text x="258" y="364" text-anchor="middle" font-weight="700" fill="#1f2a33">My_work</text>
<text x="258" y="385" text-anchor="middle" font-size="14" fill="#3a4550">планы и вопросы, если не знаете, куда писать</text>
<rect x="617.6" y="44" width="240" height="101" rx="10" fill="#ffffff" stroke="#8a939b" stroke-width="2"/>
<rect x="627.6" y="52" width="52.96" height="18" rx="9" fill="#1c7a45"/>
<text x="654.08" y="65" text-anchor="middle" font-size="11" font-weight="700" fill="#fff">Сейчас</text>
<text x="737.6" y="88" text-anchor="middle" font-weight="700" fill="#1f2a33">C:\My_code\bimcore-blog</text>
<text x="737.6" y="109" text-anchor="middle" font-size="14" fill="#3a4550">сайт learn; эта сессия</text>
<text x="737.6" y="127" text-anchor="middle" font-size="14" fill="#3a4550">открыта здесь</text>
<rect x="617.6" y="182" width="240" height="101" rx="10" fill="#ffffff" stroke="#8a939b" stroke-width="2"/>
<rect x="627.6" y="190" width="89.92" height="18" rx="9" fill="#b4541a"/>
<text x="672.5600000000001" y="203" text-anchor="middle" font-size="11" font-weight="700" fill="#fff">Не проверено</text>
<text x="737.6" y="226" text-anchor="middle" font-weight="700" fill="#1f2a33">C:\My_work</text>
<text x="737.6" y="247" text-anchor="middle" font-size="14" fill="#3a4550">папка и инструкции есть;</text>
<text x="737.6" y="265" text-anchor="middle" font-size="14" fill="#3a4550">общий чат ещё не проверен</text>
<rect x="617.6" y="320" width="240" height="79" rx="10" fill="#ffffff" stroke="#8a939b" stroke-width="2"/>
<text x="737.6" y="344" text-anchor="middle" font-weight="700" fill="#1f2a33">Без папки</text>
<text x="737.6" y="365" text-anchor="middle" font-size="14" fill="#3a4550">разговор без файлов; для</text>
<text x="737.6" y="383" text-anchor="middle" font-size="14" fill="#3a4550">дела помощник назовёт папку</text>
<rect x="885.6" y="44" width="240" height="101" rx="10" fill="#e4ecfb" stroke="#1257d6" stroke-width="2.5"/>
<rect x="895.6" y="52" width="52.96" height="18" rx="9" fill="#1c7a45"/>
<text x="922.08" y="65" text-anchor="middle" font-size="11" font-weight="700" fill="#fff">Сейчас</text>
<text x="1005.6" y="88" text-anchor="middle" font-weight="700" fill="#1f2a33">Видимая сессия</text>
<text x="1005.6" y="109" text-anchor="middle" font-size="14" fill="#3a4550">чат, в который вы пишете;</text>
<text x="1005.6" y="127" text-anchor="middle" font-size="14" fill="#3a4550">она вам отвечает</text>
<rect x="885.6" y="237.2" width="240" height="119" rx="10" fill="#e3f2e9" stroke="#1c7a45" stroke-width="2"/>
<rect x="895.6" y="245.2" width="52.96" height="18" rx="9" fill="#1c7a45"/>
<text x="922.08" y="258.2" text-anchor="middle" font-size="11" font-weight="700" fill="#fff">Сейчас</text>
<text x="1005.6" y="281.2" text-anchor="middle" font-weight="700" fill="#1f2a33">Фоновый агент</text>
<text x="1005.6" y="302.2" text-anchor="middle" font-size="14" fill="#3a4550">его запускает сессия;</text>
<text x="1005.6" y="320.2" text-anchor="middle" font-size="14" fill="#3a4550">работает до конца задачи;</text>
<text x="1005.6" y="338.2" text-anchor="middle" font-size="14" fill="#3a4550">итог возвращает ей</text>
<rect x="928.04" y="181.1" width="155.12" height="20" rx="4" fill="#ffffff" stroke="#e1e5ea"/>
<text x="1005.6" y="195.1" text-anchor="middle" font-size="12" fill="#3a4550">запускает и ждёт итог</text>
</svg>