<svg xmlns="http://www.w3.org/2000/svg" viewBox="0 0 556 1023" width="556" height="1023" font-family="Segoe UI, Arial, sans-serif" font-size="16" role="img" aria-label="Код сайта Docusaurus: как меняем">
<defs><marker id="blog-site-v-arr" viewBox="0 0 10 10" refX="9" refY="5" markerWidth="8" markerHeight="8" orient="auto-start-reverse"><path d="M 0 0 L 10 5 L 0 10 z" fill="#5b6770"/></marker></defs>
<rect x="0" y="0" width="556" height="1023" fill="#ffffff"/>
<path d="M 144 144 L 144 214" fill="none" stroke="#5b6770" stroke-width="2" marker-end="url(#blog-site-v-arr)"/>
<path d="M 144 354 L 144 384" fill="none" stroke="#5b6770" stroke-width="2" marker-end="url(#blog-site-v-arr)"/>
<path d="M 144 503 L 144 554" fill="none" stroke="#5b6770" stroke-width="2" marker-end="url(#blog-site-v-arr)"/>
<path d="M 144 633 L 144 724" fill="none" stroke="#5b6770" stroke-width="2" marker-end="url(#blog-site-v-arr)"/>
<rect x="28" y="44" width="232" height="100" rx="10" fill="#e4ecfb" stroke="#1257d6" stroke-width="2.5"/>
<text x="144" y="68" text-anchor="middle" font-weight="700" fill="#1f2a33">Вы одобрили правку</text>
<text x="144" y="89" text-anchor="middle" font-weight="700" fill="#1f2a33">сайта</text>
<text x="144" y="110" text-anchor="middle" font-size="14" fill="#3a4550">настройки, оформление,</text>
<text x="144" y="128" text-anchor="middle" font-size="14" fill="#3a4550">плагины сборки, скрипты</text>
<rect x="28" y="214" width="232" height="140" rx="10" fill="#ffffff" stroke="#8a939b" stroke-width="2"/>
<rect x="38" y="222" width="52.96" height="18" rx="9" fill="#1c7a45"/>
<text x="64.48" y="235" text-anchor="middle" font-size="11" font-weight="700" fill="#fff">Сейчас</text>
<text x="144" y="258" text-anchor="middle" font-weight="700" fill="#1f2a33">Ветка от main и</text>
<text x="144" y="279" text-anchor="middle" font-weight="700" fill="#1f2a33">временная копия</text>
<text x="144" y="300" text-anchor="middle" font-size="14" fill="#3a4550">fix/site-… внутри папки;</text>
<text x="144" y="318" text-anchor="middle" font-size="14" fill="#3a4550">установка зависимостей</text>
<text x="144" y="336" text-anchor="middle" font-size="14" fill="#3a4550">согласована заранее</text>
<rect x="28" y="384" width="232" height="119" rx="10" fill="#e3f2e9" stroke="#1c7a45" stroke-width="2"/>
<rect x="38" y="392" width="52.96" height="18" rx="9" fill="#1c7a45"/>
<text x="64.48" y="405" text-anchor="middle" font-size="11" font-weight="700" fill="#fff">Сейчас</text>
<text x="144" y="428" text-anchor="middle" font-weight="700" fill="#1f2a33">Правка и свои проверки</text>
<text x="144" y="449" text-anchor="middle" font-size="14" fill="#3a4550">сборка EN/RU/ES зелёная;</text>
<text x="144" y="467" text-anchor="middle" font-size="14" fill="#3a4550">при серьёзном риске —</text>
<text x="144" y="485" text-anchor="middle" font-size="14" fill="#3a4550">проверка другой системой</text>
<rect x="28" y="554" width="232" height="79" rx="10" fill="#e4ecfb" stroke="#1257d6" stroke-width="2.5"/>
<text x="144" y="578" text-anchor="middle" font-weight="700" fill="#1f2a33">Разрешение на выпуск</text>
<text x="144" y="599" text-anchor="middle" font-size="14" fill="#3a4550">точный состав, один push в</text>
<text x="144" y="617" text-anchor="middle" font-size="14" fill="#3a4550">main</text>
<rect x="28" y="724" width="232" height="158" rx="10" fill="#e3f2e9" stroke="#1c7a45" stroke-width="2"/>
<rect x="38" y="732" width="52.96" height="18" rx="9" fill="#1c7a45"/>
<text x="64.48" y="745" text-anchor="middle" font-size="11" font-weight="700" fill="#fff">Сейчас</text>
<text x="144" y="768" text-anchor="middle" font-weight="700" fill="#1f2a33">Проверить сайт и</text>
<text x="144" y="789" text-anchor="middle" font-weight="700" fill="#1f2a33">сверить main</text>
<text x="144" y="810" text-anchor="middle" font-size="14" fill="#3a4550">код main совпадает с</text>
<text x="144" y="828" text-anchor="middle" font-size="14" fill="#3a4550">GitHub; незавершённых</text>
<text x="144" y="846" text-anchor="middle" font-size="14" fill="#3a4550">правок кода нет; затем</text>
<text x="144" y="864" text-anchor="middle" font-size="14" fill="#3a4550">убрать копию</text>
<rect x="28" y="894" width="500" height="101" rx="10" fill="#ffffff" stroke="#8a939b" stroke-width="2"/>
<rect x="38" y="902" width="52.96" height="18" rx="9" fill="#1c7a45"/>
<text x="64.48" y="915" text-anchor="middle" font-size="11" font-weight="700" fill="#fff">Сейчас</text>
<text x="278" y="938" text-anchor="middle" font-weight="700" fill="#1f2a33">Первый выпуск по этому порядку завершён</text>
<text x="278" y="959" text-anchor="middle" font-size="14" fill="#3a4550">выкладка, проверка сайта и сверка main пройдены (main</text>
<text x="278" y="977" text-anchor="middle" font-size="14" fill="#3a4550">84340848)</text>
</svg>